mtllib material.mtl
usemtl material_0
v 1.07307100 0.03834600 1.60338500
v 1.07307100 0.03834600 1.60338500
v 1.07307100 0.03834600 1.60338500
v 1.07307100 0.25132100 1.60338500
v 1.07307100 0.25132100 1.60338500
v 1.07307100 0.25132100 1.60338500
v 1.07119200 0.03834600 1.34298600
v 1.07119200 0.03834600 1.34298600
v 1.07119200 0.03834600 1.34298600
v 1.07119200 0.25132100 1.34298600
v 1.07119200 0.25132100 1.34298600
v 1.07119200 0.25132100 1.34298600
v 1.06407700 0.03834600 1.60345100
v 1.06407700 0.03834600 1.60345100
v 1.06407700 0.03834600 1.60345100
v 1.06527700 0.25265100 1.60344200
v 1.06527700 0.25265100 1.60344200
v 1.06527700 0.25265100 1.60344200
v 1.06219800 0.03834600 1.34305100
v 1.06219800 0.03834600 1.34305100
v 1.06219800 0.03834600 1.34305100
v 1.06339800 0.25265100 1.34304200
v 1.06339800 0.25265100 1.34304200
v 1.06339800 0.25265100 1.34304200
v 1.07187100 0.25265100 1.60339400
v 1.07187100 0.25265100 1.60339400
v 1.07187100 0.25265100 1.60339400
v 1.06999200 0.25265100 1.34299500
v 1.06999200 0.25265100 1.34299500
v 1.06999200 0.25265100 1.34299500
v 1.06407700 0.25132100 1.60345100
v 1.06407700 0.25132100 1.60345100
v 1.06407700 0.25132100 1.60345100
v 1.06219800 0.25132100 1.34305100
v 1.06219800 0.25132100 1.34305100
v 1.06219800 0.25132100 1.34305100
v 1.07277100 0.25231900 1.60338700
v 1.07277100 0.25231900 1.60338700
v 1.07277100 0.25231900 1.60338700
v 1.07089100 0.25231900 1.34298800
v 1.07089100 0.25231900 1.34298800
v 1.07089100 0.25231900 1.34298800
v 1.06437700 0.25231900 1.60344800
v 1.06437700 0.25231900 1.60344800
v 1.06437700 0.25231900 1.60344800
v 1.06249800 0.25231900 1.34304900
v 1.06249800 0.25231900 1.34304900
v 1.06249800 0.25231900 1.34304900
v 0.48329200 0.03834600 1.93515700
v 0.48329200 0.03834600 1.93515700
v 0.48329200 0.03834600 1.93515700
v 0.48329200 0.25132100 1.93515700
v 0.48329200 0.25132100 1.93515700
v 0.48329200 0.25132100 1.93515700
v 0.48141300 0.03834600 1.67475700
v 0.48141300 0.03834600 1.67475700
v 0.48141300 0.03834600 1.67475700
v 0.48141300 0.25132100 1.67475700
v 0.48141300 0.25132100 1.67475700
v 0.48141300 0.25132100 1.67475700
v 0.47429800 0.03834600 1.93522200
v 0.47429800 0.03834600 1.93522200
v 0.47429800 0.03834600 1.93522200
v 0.47549800 0.25265100 1.93521300
v 0.47549800 0.25265100 1.93521300
v 0.47549800 0.25265100 1.93521300
v 0.47241900 0.03834600 1.67482200
v 0.47241900 0.03834600 1.67482200
v 0.47241900 0.03834600 1.67482200
v 0.47361900 0.25265100 1.67481300
v 0.47361900 0.25265100 1.67481300
v 0.47361900 0.25265100 1.67481300
v 0.48209200 0.25265100 1.93516500
v 0.48209200 0.25265100 1.93516500
v 0.48209200 0.25265100 1.93516500
v 0.48021300 0.25265100 1.67476600
v 0.48021300 0.25265100 1.67476600
v 0.48021300 0.25265100 1.67476600
v 0.47429800 0.25132100 1.93522200
v 0.47429800 0.25132100 1.93522200
v 0.47429800 0.25132100 1.93522200
v 0.47241900 0.25132100 1.67482200
v 0.47241900 0.25132100 1.67482200
v 0.47241900 0.25132100 1.67482200
v 0.48299200 0.25231900 1.93515900
v 0.48299200 0.25231900 1.93515900
v 0.48299200 0.25231900 1.93515900
v 0.48111300 0.25231900 1.67475900
v 0.48111300 0.25231900 1.67475900
v 0.48111300 0.25231900 1.67475900
v 0.47459800 0.25231900 1.93522000
v 0.47459800 0.25231900 1.93522000
v 0.47459800 0.25231900 1.93522000
v 0.47271900 0.25231900 1.67482000
v 0.47271900 0.25231900 1.67482000
v 0.47271900 0.25231900 1.67482000
v -0.99239300 0.03778400 0.73295400
v -0.99239300 0.03778400 0.73295400
v -0.99239300 0.03778400 0.73295400
v -0.99239300 0.25076000 0.73295300
v -0.99239300 0.25076000 0.73295300
v -0.99239300 0.25076000 0.73295300
v -0.99445900 0.03778400 0.44659400
v -0.99445900 0.03778400 0.44659400
v -0.99445900 0.03778400 0.44659400
v -0.99445900 0.25076000 0.44659400
v -0.99445900 0.25076000 0.44659400
v -0.99445900 0.25076000 0.44659400
v -1.00138600 0.03778400 0.73301800
v -1.00138600 0.03778400 0.73301800
v -1.00138600 0.03778400 0.73301800
v -1.00018700 0.25209000 0.73301000
v -1.00018700 0.25209000 0.73301000
v -1.00018700 0.25209000 0.73301000
v -1.00345300 0.03778400 0.44665900
v -1.00345300 0.03778400 0.44665900
v -1.00345300 0.03778400 0.44665900
v -1.00225300 0.25209000 0.44665100
v -1.00225300 0.25209000 0.44665100
v -1.00225300 0.25209000 0.44665100
v -0.99359300 0.25209000 0.73296200
v -0.99359300 0.25209000 0.73296200
v -0.99359300 0.25209000 0.73296200
v -0.99565900 0.25209000 0.44660300
v -0.99565900 0.25209000 0.44660300
v -0.99565900 0.25209000 0.44660300
v -1.00138600 0.25076000 0.73301800
v -1.00138600 0.25076000 0.73301800
v -1.00138600 0.25076000 0.73301800
v -1.00345300 0.25076000 0.44665900
v -1.00345300 0.25076000 0.44665900
v -1.00345300 0.25076000 0.44665900
v -0.99269300 0.25175700 0.73295600
v -0.99269300 0.25175700 0.73295600
v -0.99269300 0.25175700 0.73295600
v -0.99476000 0.25175700 0.44659700
v -0.99476000 0.25175700 0.44659700
v -0.99476000 0.25175700 0.44659700
v -1.00108700 0.25175700 0.73301600
v -1.00108700 0.25175700 0.73301600
v -1.00108700 0.25175700 0.73301600
v -1.00315400 0.25175700 0.44665700
v -1.00315400 0.25175700 0.44665700
v -1.00315400 0.25175700 0.44665700
v -0.41616500 0.03834600 0.98953600
v -0.41616500 0.03834600 0.98953600
v -0.41616500 0.03834600 0.98953600
v -0.41616600 0.25132100 0.98953600
v -0.41616600 0.25132100 0.98953600
v -0.41616600 0.25132100 0.98953600
v -0.41804400 0.03834600 0.72913700
v -0.41804400 0.03834600 0.72913700
v -0.41804400 0.03834600 0.72913700
v -0.41804400 0.25132100 0.72913700
v -0.41804400 0.25132100 0.72913700
v -0.41804400 0.25132100 0.72913700
v -0.42515900 0.03834500 0.98960100
v -0.42515900 0.03834500 0.98960100
v -0.42515900 0.03834500 0.98960100
v -0.42395900 0.25265100 0.98959300
v -0.42395900 0.25265100 0.98959300
v -0.42395900 0.25265100 0.98959300
v -0.42703800 0.03834500 0.72920200
v -0.42703800 0.03834500 0.72920200
v -0.42703800 0.03834500 0.72920200
v -0.42583800 0.25265100 0.72919300
v -0.42583800 0.25265100 0.72919300
v -0.42583800 0.25265100 0.72919300
v -0.41736500 0.25265100 0.98954500
v -0.41736500 0.25265100 0.98954500
v -0.41736500 0.25265100 0.98954500
v -0.41924400 0.25265100 0.72914500
v -0.41924400 0.25265100 0.72914500
v -0.41924400 0.25265100 0.72914500
v -0.42515900 0.25132100 0.98960100
v -0.42515900 0.25132100 0.98960100
v -0.42515900 0.25132100 0.98960100
v -0.42703800 0.25132100 0.72920200
v -0.42703800 0.25132100 0.72920200
v -0.42703800 0.25132100 0.72920200
v -0.41646500 0.25231900 0.98953800
v -0.41646500 0.25231900 0.98953800
v -0.41646500 0.25231900 0.98953800
v -0.41834400 0.25231900 0.72913900
v -0.41834400 0.25231900 0.72913900
v -0.41834400 0.25231900 0.72913900
v -0.42485900 0.25231900 0.98959900
v -0.42485900 0.25231900 0.98959900
v -0.42485900 0.25231900 0.98959900
v -0.42673800 0.25231900 0.72919900
v -0.42673800 0.25231900 0.72919900
v -0.42673800 0.25231900 0.72919900
vn -0.00000000 -1.00000000 -0.00000000
vn 1.00000000 -0.00000000 -0.00720000
vn 0.00730000 -0.00000000 1.00000000
vn 0.00650000 -0.00000000 1.00000000
vn 1.00000000 -0.00000000 -0.00720000
vn 0.95760000 0.28800000 -0.00690000
vn 1.00000000 -0.00000000 -0.00720000
vn -0.00720000 -0.00000000 -1.00000000
vn -0.00000000 -1.00000000 -0.00000000
vn 1.00000000 -0.00000000 -0.00720000
vn 0.95760000 0.28810000 -0.00690000
vn -0.00720000 -0.00010000 -1.00000000
vn -1.00000000 -0.00000000 0.00720000
vn -0.00000000 -1.00000000 -0.00000000
vn 0.00730000 -0.00000000 1.00000000
vn -0.34650000 0.93800000 0.00250000
vn 0.00730000 -0.00060000 1.00000000
vn -0.00000000 1.00000000 -0.00000000
vn -1.00000000 -0.00000000 0.00720000
vn -0.00720000 -0.00000000 -1.00000000
vn -0.00000000 -1.00000000 -0.00000000
vn -0.34660000 0.93800000 0.00250000
vn -0.00000000 1.00000000 -0.00000000
vn -0.00720000 -0.00000000 -1.00000000
vn 0.34650000 0.93800000 -0.00250000
vn -0.00000000 1.00000000 -0.00000000
vn 0.00730000 -0.00000000 1.00000000
vn -0.00000000 1.00000000 -0.00000000
vn 0.34650000 0.93800000 -0.00250000
vn -0.00720000 0.00090000 -1.00000000
vn -0.95760000 0.28800000 0.00690000
vn -1.00000000 -0.00000000 0.00720000
vn 0.00720000 0.00010000 1.00000000
vn -1.00000000 -0.00000000 0.00720000
vn -0.00650000 -0.00000000 -1.00000000
vn -0.95760000 0.28810000 0.00690000
vn 0.00720000 -0.00000000 1.00000000
vn 0.34650000 0.93800000 -0.00250000
vn 0.95760000 0.28800000 -0.00690000
vn 0.34650000 0.93800000 -0.00250000
vn -0.00720000 -0.00010000 -1.00000000
vn 0.95760000 0.28810000 -0.00690000
vn -0.95760000 0.28800000 0.00690000
vn -0.34650000 0.93800000 0.00250000
vn 0.00720000 0.00020000 1.00000000
vn -0.34660000 0.93800000 0.00250000
vn -0.00710000 -0.00000000 -1.00000000
vn -0.95760000 0.28810000 0.00690000
vn -0.00000000 -1.00000000 -0.00000000
vn 1.00000000 -0.00000000 -0.00720000
vn 0.00720000 -0.00000000 1.00000000
vn 0.95760000 0.28810000 -0.00690000
vn 0.00850000 -0.00000000 1.00000000
vn 1.00000000 -0.00000000 -0.00720000
vn -0.00000000 -1.00000000 -0.00000000
vn -0.00720000 -0.00000000 -1.00000000
vn 1.00000000 -0.00000000 -0.00720000
vn 1.00000000 -0.00000000 -0.00720000
vn -0.00720000 -0.00010000 -1.00000000
vn 0.95760000 0.28810000 -0.00690000
vn -1.00000000 -0.00000000 0.00720000
vn 0.00720000 -0.00000000 1.00000000
vn -0.00000000 -1.00000000 -0.00000000
vn -0.34650000 0.93800000 0.00250000
vn -0.00000000 1.00000000 -0.00000000
vn 0.00720000 0.00080000 1.00000000
vn -0.00000000 -1.00000000 -0.00000000
vn -1.00000000 -0.00000000 0.00720000
vn -0.00720000 -0.00000000 -1.00000000
vn -0.34650000 0.93800000 0.00250000
vn -0.00730000 -0.00000000 -1.00000000
vn -0.00000000 1.00000000 -0.00000000
vn 0.00700000 -0.00000000 1.00000000
vn -0.00000000 1.00000000 -0.00000000
vn 0.34650000 0.93800000 -0.00250000
vn -0.00000000 1.00000000 -0.00000000
vn 0.34650000 0.93800000 -0.00250000
vn -0.00720000 -0.00000000 -1.00000000
vn -0.95760000 0.28810000 0.00690000
vn 0.00730000 0.00010000 1.00000000
vn -1.00000000 -0.00000000 0.00720000
vn -0.95760000 0.28790000 0.00690000
vn -0.00730000 -0.00000000 -1.00000000
vn -1.00000000 -0.00000000 0.00720000
vn 0.34650000 0.93800000 -0.00250000
vn 0.95760000 0.28810000 -0.00690000
vn 0.00690000 -0.00000000 1.00000000
vn -0.00720000 -0.00020000 -1.00000000
vn 0.95760000 0.28810000 -0.00690000
vn 0.34650000 0.93800000 -0.00250000
vn -0.95760000 0.28810000 0.00690000
vn 0.00730000 0.00040000 1.00000000
vn -0.34650000 0.93800000 0.00250000
vn -0.00750000 -0.00000000 -1.00000000
vn -0.95760000 0.28790000 0.00690000
vn -0.34650000 0.93800000 0.00250000
vn 0.00720000 -0.00000000 1.00000000
vn 1.00000000 -0.00000000 -0.00720000
vn -0.00000000 -1.00000000 -0.00000000
vn 1.00000000 -0.00000000 -0.00720000
vn 0.95770000 0.28780000 -0.00690000
vn 0.00750000 -0.00000000 1.00000000
vn -0.00720000 -0.00000000 -1.00000000
vn -0.00000000 -1.00000000 -0.00000000
vn 1.00000000 -0.00000000 -0.00720000
vn 0.95750000 0.28850000 -0.00690000
vn 1.00000000 -0.00000000 -0.00720000
vn -0.00720000 -0.00000000 -1.00000000
vn 0.00720000 -0.00000000 1.00000000
vn -1.00000000 -0.00000000 0.00720000
vn -0.00000000 -1.00000000 -0.00000000
vn -0.34650000 0.93800000 0.00250000
vn 0.00730000 -0.00080000 1.00000000
vn -0.00000000 1.00000000 -0.00000000
vn -1.00000000 -0.00000000 0.00720000
vn -0.00000000 -1.00000000 -0.00000000
vn -0.00720000 -0.00000000 -1.00000000
vn -0.00730000 -0.00000000 -1.00000000
vn -0.00000000 1.00000000 -0.00000000
vn -0.34630000 0.93810000 0.00250000
vn 0.00710000 -0.00000000 1.00000000
vn 0.34650000 0.93800000 -0.00250000
vn -0.00000000 1.00000000 -0.00000000
vn 0.34660000 0.93800000 -0.00250000
vn -0.00000000 1.00000000 -0.00000000
vn -0.00720000 -0.00020000 -1.00000000
vn -0.95770000 0.28760000 0.00690000
vn 0.00720000 -0.00000000 1.00000000
vn -1.00000000 -0.00000000 0.00720000
vn -0.00730000 -0.00000000 -1.00000000
vn -0.95770000 0.28770000 0.00690000
vn -1.00000000 -0.00000000 0.00720000
vn 0.00700000 -0.00000000 1.00000000
vn 0.34650000 0.93800000 -0.00250000
vn 0.95770000 0.28780000 -0.00690000
vn 0.95740000 0.28850000 -0.00690000
vn 0.34660000 0.93800000 -0.00250000
vn -0.00720000 -0.00000000 -1.00000000
vn -0.34650000 0.93800000 0.00250000
vn 0.00720000 -0.00010000 1.00000000
vn -0.95770000 0.28760000 0.00690000
vn -0.95770000 0.28770000 0.00690000
vn -0.34630000 0.93810000 0.00250000
vn -0.00740000 -0.00000000 -1.00000000
vn 0.00730000 -0.00000000 1.00000000
vn 1.00000000 -0.00000000 -0.00720000
vn -0.00000000 -1.00000000 -0.00000000
vn 0.00650000 -0.00000000 1.00000000
vn 0.95770000 0.28750000 -0.00690000
vn 1.00000000 -0.00000000 -0.00720000
vn -0.00720000 -0.00000000 -1.00000000
vn -0.00000000 -1.00000000 -0.00000000
vn 1.00000000 -0.00000000 -0.00720000
vn -0.00720000 -0.00010000 -1.00000000
vn 0.95760000 0.28790000 -0.00690000
vn 1.00000000 -0.00000000 -0.00720000
vn -0.00000000 -1.00000000 -0.00000000
vn 0.00730000 -0.00000000 1.00000000
vn -1.00000000 -0.00000000 0.00720000
vn 0.00720000 -0.00030000 1.00000000
vn -0.34650000 0.93800000 0.00250000
vn -0.00000000 1.00000000 -0.00000000
vn -1.00000000 -0.00000000 0.00720000
vn -0.00720000 -0.00000000 -1.00000000
vn -0.00000000 -1.00000000 -0.00000000
vn -0.34660000 0.93800000 0.00250000
vn -0.00000000 1.00000000 -0.00000000
vn -0.00720000 -0.00000000 -1.00000000
vn 0.34650000 0.93800000 -0.00250000
vn 0.00740000 -0.00000000 1.00000000
vn -0.00000000 1.00000000 -0.00000000
vn 0.34650000 0.93800000 -0.00250000
vn -0.00000000 1.00000000 -0.00000000
vn -0.00720000 0.00090000 -1.00000000
vn -1.00000000 -0.00000000 0.00720000
vn -0.95760000 0.28800000 0.00690000
vn 0.00720000 -0.00000000 1.00000000
vn -0.95760000 0.28810000 0.00690000
vn -1.00000000 -0.00000000 0.00720000
vn -0.00750000 -0.00000000 -1.00000000
vn 0.95770000 0.28750000 -0.00690000
vn 0.00740000 -0.00000000 1.00000000
vn 0.34650000 0.93800000 -0.00250000
vn 0.34650000 0.93800000 -0.00250000
vn 0.95760000 0.28790000 -0.00690000
vn -0.00720000 -0.00000000 -1.00000000
vn -0.95760000 0.28800000 0.00690000
vn -0.34650000 0.93800000 0.00250000
vn 0.00720000 -0.00000000 1.00000000
vn -0.34660000 0.93800000 0.00250000
vn -0.95760000 0.28810000 0.00690000
vn -0.00720000 -0.00000000 -1.00000000
vt 0.80842500 0.14003200
vt 0.01445000 0.81459600
vt 0.98778000 0.19278700
vt 0.51379300 0.19278600
vt 0.48843400 0.81459500
vt 0.48843400 0.81459500
vt 0.01445000 0.20455100
vt 0.01497500 0.19308400
vt 0.19837300 0.14003200
vt 0.48843400 0.20455100
vt 0.48843400 0.20455100
vt 0.48896100 0.19309800
vt 0.98804900 0.81459500
vt 0.80842500 0.16221500
vt 0.98778000 0.17060300
vt 0.50938100 0.81459500
vt 0.51083300 0.17356300
vt 0.50938100 0.81459500
vt 0.98804900 0.20455100
vt 0.01497500 0.17090000
vt 0.19837300 0.16221500
vt 0.50938100 0.20455100
vt 0.50938100 0.20455100
vt 0.49192100 0.17387500
vt 0.49311600 0.81459500
vt 0.49311600 0.81459500
vt 0.51083300 0.18982700
vt 0.49311600 0.20455100
vt 0.49311600 0.20455100
vt 0.49192100 0.19013800
vt 0.51406500 0.81459500
vt 0.51406500 0.81459500
vt 0.51379300 0.17060300
vt 0.51406400 0.20455100
vt 0.48896200 0.17091500
vt 0.51406400 0.20455100
vt 0.51157300 0.19204600
vt 0.49077500 0.81459500
vt 0.49077500 0.81459500
vt 0.49077500 0.20455100
vt 0.49118100 0.19235800
vt 0.49077500 0.20455100
vt 0.51172300 0.81459500
vt 0.51172300 0.81459500
vt 0.51157300 0.17134300
vt 0.51172300 0.20455100
vt 0.49118200 0.17165500
vt 0.51172300 0.20455100
vt 0.80842500 0.14003200
vt 0.01445000 0.81459600
vt 0.98778000 0.19278700
vt 0.48843400 0.81459500
vt 0.51379300 0.19278600
vt 0.48843400 0.81459500
vt 0.19837300 0.14003200
vt 0.01497500 0.19308400
vt 0.01445000 0.20455100
vt 0.48843400 0.20455100
vt 0.48896100 0.19309800
vt 0.48843400 0.20455100
vt 0.98804900 0.81459500
vt 0.98778000 0.17060300
vt 0.80842500 0.16221500
vt 0.50938100 0.81459500
vt 0.50938100 0.81459500
vt 0.51083300 0.17356300
vt 0.19837300 0.16221500
vt 0.98804900 0.20455100
vt 0.01497500 0.17090000
vt 0.50938100 0.20455100
vt 0.49192100 0.17387500
vt 0.50938100 0.20455100
vt 0.51083300 0.18982700
vt 0.49311600 0.81459500
vt 0.49311600 0.81459500
vt 0.49311600 0.20455100
vt 0.49311600 0.20455100
vt 0.49192100 0.19013800
vt 0.51406500 0.81459500
vt 0.51379300 0.17060300
vt 0.51406500 0.81459500
vt 0.51406400 0.20455100
vt 0.48896200 0.17091500
vt 0.51406400 0.20455100
vt 0.49077500 0.81459500
vt 0.49077500 0.81459500
vt 0.51157300 0.19204600
vt 0.49118100 0.19235800
vt 0.49077500 0.20455100
vt 0.49077500 0.20455100
vt 0.51172300 0.81459500
vt 0.51157300 0.17134300
vt 0.51172300 0.81459500
vt 0.49118200 0.17165500
vt 0.51172300 0.20455100
vt 0.51172300 0.20455100
vt 0.98778000 0.19278700
vt 0.01445000 0.81459600
vt 0.80842500 0.14003200
vt 0.48843400 0.81459500
vt 0.48843400 0.81459500
vt 0.51379300 0.19278600
vt 0.01497500 0.19308400
vt 0.19837300 0.14003200
vt 0.01445000 0.20455100
vt 0.48843400 0.20455100
vt 0.48843400 0.20455100
vt 0.48896100 0.19309800
vt 0.98778000 0.17060300
vt 0.98804900 0.81459500
vt 0.80842500 0.16221500
vt 0.50938100 0.81459500
vt 0.51083300 0.17356300
vt 0.50938100 0.81459500
vt 0.98804900 0.20455100
vt 0.19837300 0.16221500
vt 0.01497500 0.17090000
vt 0.49192100 0.17387500
vt 0.50938100 0.20455100
vt 0.50938100 0.20455100
vt 0.51083300 0.18982700
vt 0.49311600 0.81459500
vt 0.49311600 0.81459500
vt 0.49311600 0.20455100
vt 0.49311600 0.20455100
vt 0.49192100 0.19013800
vt 0.51406500 0.81459500
vt 0.51379300 0.17060300
vt 0.51406500 0.81459500
vt 0.48896200 0.17091500
vt 0.51406400 0.20455100
vt 0.51406400 0.20455100
vt 0.51157300 0.19204600
vt 0.49077500 0.81459500
vt 0.49077500 0.81459500
vt 0.49077500 0.20455100
vt 0.49077500 0.20455100
vt 0.49118100 0.19235800
vt 0.51172300 0.81459500
vt 0.51157300 0.17134300
vt 0.51172300 0.81459500
vt 0.51172300 0.20455100
vt 0.51172300 0.20455100
vt 0.49118200 0.17165500
vt 0.98778000 0.19278700
vt 0.01445000 0.81459600
vt 0.80842500 0.14003200
vt 0.51379300 0.19278600
vt 0.48843400 0.81459500
vt 0.48843400 0.81459500
vt 0.01497500 0.19308400
vt 0.19837300 0.14003200
vt 0.01445000 0.20455100
vt 0.48896100 0.19309800
vt 0.48843400 0.20455100
vt 0.48843400 0.20455100
vt 0.80842500 0.16221500
vt 0.98778000 0.17060300
vt 0.98804900 0.81459500
vt 0.51083300 0.17356300
vt 0.50938100 0.81459500
vt 0.50938100 0.81459500
vt 0.98804900 0.20455100
vt 0.01497500 0.17090000
vt 0.19837300 0.16221500
vt 0.50938100 0.20455100
vt 0.50938100 0.20455100
vt 0.49192100 0.17387500
vt 0.49311600 0.81459500
vt 0.51083300 0.18982700
vt 0.49311600 0.81459500
vt 0.49311600 0.20455100
vt 0.49311600 0.20455100
vt 0.49192100 0.19013800
vt 0.51406500 0.81459500
vt 0.51406500 0.81459500
vt 0.51379300 0.17060300
vt 0.51406400 0.20455100
vt 0.51406400 0.20455100
vt 0.48896200 0.17091500
vt 0.49077500 0.81459500
vt 0.51157300 0.19204600
vt 0.49077500 0.81459500
vt 0.49077500 0.20455100
vt 0.49077500 0.20455100
vt 0.49118100 0.19235800
vt 0.51172300 0.81459500
vt 0.51172300 0.81459500
vt 0.51157300 0.17134300
vt 0.51172300 0.20455100
vt 0.51172300 0.20455100
vt 0.49118200 0.17165500
f 2/2/2 7/7/7 10/10/10
f 10/10/10 5/5/5 2/2/2
f 13/13/13 32/32/32 34/34/34
f 34/34/34 19/19/19 13/13/13
f 3/3/3 4/4/4 37/37/37
f 3/3/3 37/37/37 27/27/27
f 27/27/27 17/17/17 45/45/45
f 27/27/27 45/45/45 33/33/33
f 3/3/3 27/27/27 33/33/33
f 3/3/3 33/33/33 15/15/15
f 26/26/26 28/28/28 23/23/23
f 23/23/23 18/18/18 26/26/26
f 12/12/12 8/8/8 20/20/20
f 20/20/20 35/35/35 47/47/47
f 20/20/20 47/47/47 24/24/24
f 12/12/12 20/20/20 24/24/24
f 41/41/41 12/12/12 24/24/24
f 30/30/30 41/41/41 24/24/24
f 9/9/9 1/1/1 14/14/14
f 14/14/14 21/21/21 9/9/9
f 39/39/39 6/6/6 11/11/11
f 11/11/11 42/42/42 39/39/39
f 48/48/48 36/36/36 31/31/31
f 31/31/31 43/43/43 48/48/48
f 25/25/25 38/38/38 40/40/40
f 40/40/40 29/29/29 25/25/25
f 22/22/22 46/46/46 44/44/44
f 44/44/44 16/16/16 22/22/22
f 50/50/50 57/57/57 58/58/58
f 58/58/58 54/54/54 50/50/50
f 61/61/61 81/81/81 84/84/84
f 84/84/84 68/68/68 61/61/61
f 51/51/51 53/53/53 87/87/87
f 51/51/51 87/87/87 73/73/73
f 73/73/73 66/66/66 92/92/92
f 73/73/73 92/92/92 80/80/80
f 51/51/51 73/73/73 80/80/80
f 51/51/51 80/80/80 62/62/62
f 74/74/74 76/76/76 72/72/72
f 72/72/72 65/65/65 74/74/74
f 59/59/59 56/56/56 69/69/69
f 69/69/69 83/83/83 94/94/94
f 69/69/69 94/94/94 71/71/71
f 59/59/59 69/69/69 71/71/71
f 88/88/88 59/59/59 71/71/71
f 78/78/78 88/88/88 71/71/71
f 55/55/55 49/49/49 63/63/63
f 63/63/63 67/67/67 55/55/55
f 86/86/86 52/52/52 60/60/60
f 60/60/60 89/89/89 86/86/86
f 95/95/95 82/82/82 79/79/79
f 79/79/79 91/91/91 95/95/95
f 75/75/75 85/85/85 90/90/90
f 90/90/90 77/77/77 75/75/75
f 70/70/70 96/96/96 93/93/93
f 93/93/93 64/64/64 70/70/70
f 98/98/98 105/105/105 107/107/107
f 107/107/107 100/100/100 98/98/98
f 110/110/110 129/129/129 132/132/132
f 132/132/132 115/115/115 110/110/110
f 97/97/97 102/102/102 133/133/133
f 97/97/97 133/133/133 121/121/121
f 121/121/121 113/113/113 140/140/140
f 121/121/121 140/140/140 128/128/128
f 97/97/97 121/121/121 128/128/128
f 97/97/97 128/128/128 109/109/109
f 123/123/123 125/125/125 119/119/119
f 119/119/119 114/114/114 123/123/123
f 108/108/108 103/103/103 117/117/117
f 117/117/117 130/130/130 144/144/144
f 117/117/117 144/144/144 118/118/118
f 108/108/108 117/117/117 118/118/118
f 138/138/138 108/108/108 118/118/118
f 126/126/126 138/138/138 118/118/118
f 104/104/104 99/99/99 111/111/111
f 111/111/111 116/116/116 104/104/104
f 135/135/135 101/101/101 106/106/106
f 106/106/106 136/136/136 135/135/135
f 142/142/142 131/131/131 127/127/127
f 127/127/127 141/141/141 142/142/142
f 122/122/122 134/134/134 137/137/137
f 137/137/137 124/124/124 122/122/122
f 120/120/120 143/143/143 139/139/139
f 139/139/139 112/112/112 120/120/120
f 146/146/146 153/153/153 156/156/156
f 156/156/156 150/150/150 146/146/146
f 159/159/159 175/175/175 179/179/179
f 179/179/179 163/163/163 159/159/159
f 145/145/145 148/148/148 182/182/182
f 145/145/145 182/182/182 170/170/170
f 170/170/170 160/160/160 189/189/189
f 170/170/170 189/189/189 177/177/177
f 145/145/145 170/170/170 177/177/177
f 145/145/145 177/177/177 158/158/158
f 171/171/171 173/173/173 167/167/167
f 167/167/167 162/162/162 171/171/171
f 154/154/154 151/151/151 164/164/164
f 164/164/164 180/180/180 192/192/192
f 164/164/164 192/192/192 168/168/168
f 154/154/154 164/164/164 168/168/168
f 186/186/186 154/154/154 168/168/168
f 174/174/174 186/186/186 168/168/168
f 152/152/152 147/147/147 157/157/157
f 157/157/157 165/165/165 152/152/152
f 181/181/181 149/149/149 155/155/155
f 155/155/155 185/185/185 181/181/181
f 191/191/191 178/178/178 176/176/176
f 176/176/176 187/187/187 191/191/191
f 169/169/169 183/183/183 184/184/184
f 184/184/184 172/172/172 169/169/169
f 166/166/166 190/190/190 188/188/188
f 188/188/188 161/161/161 166/166/166

