mtllib material.mtl
usemtl material_0
v 0.58613200 0.26789700 0.28700300
v 0.59185200 0.26789700 0.28667300
v 0.59739000 0.26789700 0.28571400
v 0.60239200 0.26789700 0.28422600
v 0.60740500 0.26789700 0.28197700
v 0.61252100 0.26789700 0.27870100
v 0.61719600 0.26789700 0.27438000
v 0.62068800 0.26789700 0.26969400
v 0.62315600 0.26789700 0.26473100
v 0.62415200 0.26789700 0.26140600
v 0.62439800 0.26789700 0.26007000
v 0.62463900 0.26789700 0.25875000
v 0.62474800 0.26789700 0.25752800
v 0.62479900 0.26789700 0.25636700
v 0.62481800 0.26789700 0.25573400
v 0.62481500 0.26789700 0.25537200
v 0.58040700 0.26789700 0.28675500
v 0.57485600 0.26789700 0.28587700
v 0.56983300 0.26789700 0.28446100
v 0.56478700 0.26789700 0.28228500
v 0.55962500 0.26789700 0.27908200
v 0.55488800 0.26789700 0.27483000
v 0.55132900 0.26789700 0.27019400
v 0.54879000 0.26789700 0.26526800
v 0.54774600 0.26789700 0.26195700
v 0.54748100 0.26789700 0.26062500
v 0.54722100 0.26789700 0.25930800
v 0.54709400 0.26789700 0.25808900
v 0.54702600 0.26789700 0.25692800
v 0.54700400 0.26789700 0.25629500
v 0.54699200 0.26789700 0.25593300
v 0.57995900 0.26789700 0.22463200
v 0.57442100 0.26789700 0.22559100
v 0.56941900 0.26789700 0.22707800
v 0.56440500 0.26789700 0.22932800
v 0.55929000 0.26789700 0.23260400
v 0.55461500 0.26789700 0.23692500
v 0.55112200 0.26789700 0.24161100
v 0.54865500 0.26789700 0.24657400
v 0.54765900 0.26789700 0.24989900
v 0.54741300 0.26789700 0.25123400
v 0.54717200 0.26789700 0.25255500
v 0.54706300 0.26789700 0.25377700
v 0.54701200 0.26789700 0.25493800
v 0.54698900 0.26789700 0.25557100
v 0.58567900 0.26789700 0.22430200
v 0.59140400 0.26789700 0.22455000
v 0.59695500 0.26789700 0.22542800
v 0.60197800 0.26789700 0.22684300
v 0.60702300 0.26789700 0.22902000
v 0.61218600 0.26789700 0.23222300
v 0.61692200 0.26789700 0.23647500
v 0.62048200 0.26789700 0.24111100
v 0.62302100 0.26789700 0.24603700
v 0.62406500 0.26789700 0.24934700
v 0.62433000 0.26789700 0.25067900
v 0.62459000 0.26789700 0.25199600
v 0.62471700 0.26789700 0.25321600
v 0.62478500 0.26789700 0.25437600
v 0.62481200 0.26789700 0.25500900
v 0.21491200 0.26789700 0.28968200
v 0.22063300 0.26789700 0.28935100
v 0.22617000 0.26789700 0.28839300
v 0.23117300 0.26789700 0.28690500
v 0.23618600 0.26789700 0.28465600
v 0.24130200 0.26789700 0.28137900
v 0.24597700 0.26789700 0.27705900
v 0.24946900 0.26789700 0.27237300
v 0.25193700 0.26789700 0.26741000
v 0.25293300 0.26789700 0.26408500
v 0.25317900 0.26789700 0.26274900
v 0.25341900 0.26789700 0.26142900
v 0.25352900 0.26789700 0.26020700
v 0.25358000 0.26789700 0.25904600
v 0.25359800 0.26789700 0.25841300
v 0.25359500 0.26789700 0.25805100
v 0.20918800 0.26789700 0.28943400
v 0.20363700 0.26789700 0.28855500
v 0.19861400 0.26789700 0.28714000
v 0.19356800 0.26789700 0.28496400
v 0.18840600 0.26789700 0.28176100
v 0.18366900 0.26789700 0.27750800
v 0.18010900 0.26789700 0.27287300
v 0.17757100 0.26789700 0.26794700
v 0.17652600 0.26789700 0.26463600
v 0.17626100 0.26789700 0.26330400
v 0.17600100 0.26789700 0.26198700
v 0.17587500 0.26789700 0.26076700
v 0.17580700 0.26789700 0.25960700
v 0.17578500 0.26789700 0.25897400
v 0.17577300 0.26789700 0.25861200
v 0.20873900 0.26789700 0.22731100
v 0.20320200 0.26789700 0.22827000
v 0.19820000 0.26789700 0.22975700
v 0.19318600 0.26789700 0.23200600
v 0.18807100 0.26789700 0.23528300
v 0.18339600 0.26789700 0.23960400
v 0.17990300 0.26789700 0.24429000
v 0.17743500 0.26789700 0.24925200
v 0.17644000 0.26789700 0.25257800
v 0.17619400 0.26789700 0.25391300
v 0.17595300 0.26789700 0.25523400
v 0.17584400 0.26789700 0.25645600
v 0.17579200 0.26789700 0.25761600
v 0.17577000 0.26789700 0.25825000
v 0.21446000 0.26789700 0.22698100
v 0.22018500 0.26789700 0.22722900
v 0.22573500 0.26789700 0.22810700
v 0.23075900 0.26789700 0.22952200
v 0.23580400 0.26789700 0.23169900
v 0.24096600 0.26789700 0.23490200
v 0.24570300 0.26789700 0.23915400
v 0.24926300 0.26789700 0.24378900
v 0.25180200 0.26789700 0.24871600
v 0.25284600 0.26789700 0.25202600
v 0.25311100 0.26789700 0.25335800
v 0.25337100 0.26789700 0.25467500
v 0.25349700 0.26789700 0.25589500
v 0.25356500 0.26789700 0.25705500
v 0.25359300 0.26789700 0.25768800
vn -0.00000000 1.00000000 -0.00000000
vn -0.00000000 1.00000000 -0.00000000
vn -0.00000000 1.00000000 -0.00000000
vn -0.00000000 1.00000000 -0.00000000
vn -0.00000000 1.00000000 -0.00000000
vn -0.00000000 1.00000000 -0.00000000
vn -0.00000000 1.00000000 -0.00000000
vn -0.00000000 1.00000000 -0.00000000
vn -0.00000000 1.00000000 -0.00000000
vn -0.00000000 1.00000000 -0.00000000
vn -0.00000000 1.00000000 -0.00000000
vn -0.00000000 1.00000000 -0.00000000
vn -0.00000000 1.00000000 -0.00000000
vn -0.00000000 1.00000000 -0.00000000
vn 0.00180000 1.00000000 -0.00000000
vn -0.00000000 1.00000000 -0.00000000
vn -0.00000000 1.00000000 -0.00000000
vn -0.00000000 1.00000000 -0.00000000
vn -0.00000000 1.00000000 -0.00000000
vn -0.00000000 1.00000000 -0.00000000
vn -0.00000000 1.00000000 -0.00000000
vn -0.00000000 1.00000000 -0.00000000
vn -0.00000000 1.00000000 -0.00000000
vn -0.00000000 1.00000000 -0.00000000
vn -0.00000000 1.00000000 -0.00000000
vn -0.00000000 1.00000000 -0.00000000
vn -0.00000000 1.00000000 -0.00000000
vn -0.00000000 1.00000000 -0.00000000
vn -0.00340000 1.00000000 -0.00000000
vn -0.00000000 1.00000000 -0.00000000
vn -0.00470000 1.00000000 -0.00000000
vn -0.00000000 1.00000000 -0.00000000
vn -0.00000000 1.00000000 -0.00000000
vn -0.00000000 1.00000000 -0.00000000
vn -0.00000000 1.00000000 -0.00000000
vn -0.00000000 1.00000000 -0.00000000
vn -0.00000000 1.00000000 -0.00000000
vn -0.00000000 1.00000000 -0.00000000
vn -0.00000000 1.00000000 -0.00000000
vn 0.00020000 1.00000000 -0.00000000
vn -0.00000000 1.00000000 -0.00000000
vn -0.00000000 1.00000000 -0.00000000
vn -0.00030000 1.00000000 -0.00000000
vn -0.00480000 1.00000000 -0.00000000
vn -0.00000000 1.00000000 -0.00000000
vn -0.00000000 1.00000000 -0.00000000
vn -0.00000000 1.00000000 -0.00010000
vn -0.00000000 1.00000000 -0.00000000
vn -0.00000000 1.00000000 -0.00000000
vn -0.00000000 1.00000000 -0.00000000
vn -0.00000000 1.00000000 -0.00000000
vn -0.00000000 1.00000000 -0.00000000
vn -0.00000000 1.00000000 -0.00000000
vn -0.00000000 1.00000000 -0.00000000
vn 0.00020000 1.00000000 -0.00000000
vn -0.00000000 1.00000000 -0.00000000
vn -0.00040000 1.00000000 -0.00000000
vn 0.00030000 1.00000000 -0.00000000
vn -0.00000000 1.00000000 -0.00000000
vn -0.00000000 1.00000000 -0.00000000
vn -0.00000000 1.00000000 -0.00000000
vn -0.00000000 1.00000000 -0.00000000
vn -0.00000000 1.00000000 -0.00000000
vn -0.00000000 1.00000000 -0.00000000
vn -0.00000000 1.00000000 -0.00010000
vn -0.00000000 1.00000000 -0.00000000
vn -0.00000000 1.00000000 -0.00000000
vn -0.00000000 1.00000000 -0.00000000
vn -0.00000000 1.00000000 -0.00000000
vn -0.00000000 1.00000000 -0.00000000
vn 0.02250000 0.99970000 -0.00000000
vn -0.00020000 1.00000000 -0.00000000
vn -0.00000000 1.00000000 -0.00000000
vn -0.00000000 1.00000000 -0.00000000
vn -0.00170000 1.00000000 -0.00000000
vn -0.00000000 1.00000000 -0.00000000
vn -0.00000000 1.00000000 -0.00000000
vn -0.00000000 1.00000000 -0.00000000
vn -0.00000000 1.00000000 -0.00000000
vn -0.00000000 1.00000000 -0.00000000
vn -0.00000000 1.00000000 -0.00000000
vn -0.00000000 1.00000000 -0.00000000
vn -0.00000000 1.00000000 -0.00000000
vn -0.00000000 1.00000000 -0.00000000
vn 0.00020000 1.00000000 -0.00000000
vn -0.00010000 1.00000000 -0.00000000
vn 0.00040000 1.00000000 -0.00000000
vn 0.00010000 1.00000000 -0.00000000
vn -0.00000000 1.00000000 -0.00000000
vn -0.00160000 1.00000000 -0.00000000
vn 0.00470000 1.00000000 -0.00000000
vn -0.00000000 1.00000000 -0.00000000
vn -0.00000000 1.00000000 -0.00000000
vn -0.00000000 1.00000000 -0.00000000
vn -0.00000000 1.00000000 -0.00000000
vn -0.00000000 1.00000000 -0.00000000
vn -0.00000000 1.00000000 -0.00000000
vn -0.00000000 1.00000000 -0.00000000
vn -0.00000000 1.00000000 -0.00000000
vn -0.00000000 1.00000000 -0.00000000
vn -0.00000000 1.00000000 -0.00000000
vn -0.00000000 1.00000000 -0.00000000
vn 0.00030000 1.00000000 -0.00000000
vn -0.00480000 1.00000000 -0.00000000
vn -0.00000000 1.00000000 -0.00000000
vn -0.00000000 1.00000000 -0.00000000
vn -0.00000000 1.00000000 -0.00000000
vn -0.00000000 1.00000000 -0.00000000
vn -0.00000000 1.00000000 -0.00000000
vn -0.00000000 1.00000000 -0.00000000
vn -0.00000000 1.00000000 -0.00000000
vn -0.00000000 1.00000000 -0.00000000
vn -0.00000000 1.00000000 -0.00000000
vn -0.00000000 1.00000000 -0.00000000
vn 0.00020000 1.00000000 -0.00000000
vn -0.00000000 1.00000000 -0.00000000
vn -0.00000000 1.00000000 -0.00000000
vn 0.00030000 1.00000000 -0.00000000
vn -0.00000000 1.00000000 -0.00000000
vn -0.00000000 1.00000000 -0.00000000
vt 0.00000000 0.00000000
vt 1.00000000 0.00000000
vt 1.00000000 0.00000000
vt 1.00000000 0.00000000
vt 1.00000000 0.00000000
vt 1.00000000 0.00000000
vt 1.00000000 0.00000000
vt 1.00000000 0.00000000
vt 1.00000000 0.00000000
vt 1.00000000 0.00000000
vt 1.00000000 0.00000000
vt 1.00000000 0.00000000
vt 1.00000000 0.00000000
vt 1.00000000 0.00000000
vt 1.00000000 0.00000000
vt 1.00000000 0.00000000
vt 1.00000000 0.00000000
vt 1.00000000 0.00000000
vt 1.00000000 0.00000000
vt 1.00000000 0.00000000
vt 1.00000000 0.00000000
vt 1.00000000 0.00000000
vt 1.00000000 0.00000000
vt 1.00000000 0.00000000
vt 1.00000000 0.00000000
vt 1.00000000 0.00000000
vt 1.00000000 0.00000000
vt 1.00000000 0.00000000
vt 1.00000000 0.00000000
vt 1.00000000 0.00000000
vt 1.00000000 0.00000000
vt 1.00000000 0.00000000
vt 1.00000000 0.00000000
vt 1.00000000 0.00000000
vt 1.00000000 0.00000000
vt 1.00000000 0.00000000
vt 1.00000000 0.00000000
vt 1.00000000 0.00000000
vt 1.00000000 0.00000000
vt 1.00000000 0.00000000
vt 1.00000000 0.00000000
vt 1.00000000 0.00000000
vt 1.00000000 0.00000000
vt 1.00000000 0.00000000
vt 1.00000000 0.00000000
vt 0.00000000 0.00000000
vt 1.00000000 0.00000000
vt 1.00000000 0.00000000
vt 1.00000000 0.00000000
vt 1.00000000 0.00000000
vt 1.00000000 0.00000000
vt 1.00000000 0.00000000
vt 1.00000000 0.00000000
vt 1.00000000 0.00000000
vt 1.00000000 0.00000000
vt 1.00000000 0.00000000
vt 1.00000000 0.00000000
vt 1.00000000 0.00000000
vt 1.00000000 0.00000000
vt 1.00000000 0.00000000
vt 0.00000000 0.00000000
vt 1.00000000 0.00000000
vt 1.00000000 0.00000000
vt 1.00000000 0.00000000
vt 1.00000000 0.00000000
vt 1.00000000 0.00000000
vt 1.00000000 0.00000000
vt 1.00000000 0.00000000
vt 1.00000000 0.00000000
vt 1.00000000 0.00000000
vt 1.00000000 0.00000000
vt 1.00000000 0.00000000
vt 1.00000000 0.00000000
vt 1.00000000 0.00000000
vt 1.00000000 0.00000000
vt 1.00000000 0.00000000
vt 1.00000000 0.00000000
vt 1.00000000 0.00000000
vt 1.00000000 0.00000000
vt 1.00000000 0.00000000
vt 1.00000000 0.00000000
vt 1.00000000 0.00000000
vt 1.00000000 0.00000000
vt 1.00000000 0.00000000
vt 1.00000000 0.00000000
vt 1.00000000 0.00000000
vt 1.00000000 0.00000000
vt 1.00000000 0.00000000
vt 1.00000000 0.00000000
vt 1.00000000 0.00000000
vt 1.00000000 0.00000000
vt 1.00000000 0.00000000
vt 1.00000000 0.00000000
vt 1.00000000 0.00000000
vt 1.00000000 0.00000000
vt 1.00000000 0.00000000
vt 1.00000000 0.00000000
vt 1.00000000 0.00000000
vt 1.00000000 0.00000000
vt 1.00000000 0.00000000
vt 1.00000000 0.00000000
vt 1.00000000 0.00000000
vt 1.00000000 0.00000000
vt 1.00000000 0.00000000
vt 1.00000000 0.00000000
vt 0.00000000 0.00000000
vt 1.00000000 0.00000000
vt 1.00000000 0.00000000
vt 1.00000000 0.00000000
vt 1.00000000 0.00000000
vt 1.00000000 0.00000000
vt 1.00000000 0.00000000
vt 1.00000000 0.00000000
vt 1.00000000 0.00000000
vt 1.00000000 0.00000000
vt 1.00000000 0.00000000
vt 1.00000000 0.00000000
vt 1.00000000 0.00000000
vt 1.00000000 0.00000000
vt 1.00000000 0.00000000
f 1/1/1 2/2/2 3/3/3
f 1/1/1 3/3/3 4/4/4
f 4/4/4 5/5/5 6/6/6
f 1/1/1 4/4/4 6/6/6
f 6/6/6 7/7/7 8/8/8
f 8/8/8 9/9/9 10/10/10
f 6/6/6 8/8/8 10/10/10
f 10/10/10 11/11/11 12/12/12
f 12/12/12 13/13/13 14/14/14
f 10/10/10 12/12/12 14/14/14
f 6/6/6 10/10/10 14/14/14
f 14/14/14 15/15/15 16/16/16
f 14/14/14 16/16/16 60/60/60
f 60/60/60 59/59/59 58/58/58
f 58/58/58 57/57/57 56/56/56
f 60/60/60 58/58/58 56/56/56
f 14/14/14 60/60/60 56/56/56
f 6/6/6 14/14/14 56/56/56
f 56/56/56 55/55/55 54/54/54
f 54/54/54 53/53/53 52/52/52
f 56/56/56 54/54/54 52/52/52
f 52/52/52 51/51/51 50/50/50
f 50/50/50 49/49/49 48/48/48
f 52/52/52 50/50/50 48/48/48
f 56/56/56 52/52/52 48/48/48
f 48/48/48 47/47/47 46/46/46
f 46/46/46 32/32/32 33/33/33
f 48/48/48 46/46/46 33/33/33
f 33/33/33 34/34/34 35/35/35
f 35/35/35 36/36/36 37/37/37
f 33/33/33 35/35/35 37/37/37
f 48/48/48 33/33/33 37/37/37
f 56/56/56 48/48/48 37/37/37
f 6/6/6 56/56/56 37/37/37
f 37/37/37 38/38/38 39/39/39
f 39/39/39 40/40/40 41/41/41
f 37/37/37 39/39/39 41/41/41
f 41/41/41 42/42/42 43/43/43
f 43/43/43 44/44/44 45/45/45
f 41/41/41 43/43/43 45/45/45
f 37/37/37 41/41/41 45/45/45
f 45/45/45 31/31/31 30/30/30
f 30/30/30 29/29/29 28/28/28
f 45/45/45 30/30/30 28/28/28
f 28/28/28 27/27/27 26/26/26
f 26/26/26 25/25/25 24/24/24
f 28/28/28 26/26/26 24/24/24
f 45/45/45 28/28/28 24/24/24
f 37/37/37 45/45/45 24/24/24
f 6/6/6 37/37/37 24/24/24
f 1/1/1 6/6/6 24/24/24
f 24/24/24 23/23/23 22/22/22
f 22/22/22 21/21/21 20/20/20
f 24/24/24 22/22/22 20/20/20
f 1/1/1 24/24/24 20/20/20
f 20/20/20 19/19/19 18/18/18
f 1/1/1 20/20/20 18/18/18
f 1/1/1 18/18/18 17/17/17
f 61/61/61 62/62/62 63/63/63
f 61/61/61 63/63/63 64/64/64
f 64/64/64 65/65/65 66/66/66
f 61/61/61 64/64/64 66/66/66
f 66/66/66 67/67/67 68/68/68
f 68/68/68 69/69/69 70/70/70
f 66/66/66 68/68/68 70/70/70
f 70/70/70 71/71/71 72/72/72
f 72/72/72 73/73/73 74/74/74
f 70/70/70 72/72/72 74/74/74
f 66/66/66 70/70/70 74/74/74
f 74/74/74 75/75/75 76/76/76
f 74/74/74 76/76/76 120/120/120
f 120/120/120 119/119/119 118/118/118
f 118/118/118 117/117/117 116/116/116
f 120/120/120 118/118/118 116/116/116
f 74/74/74 120/120/120 116/116/116
f 66/66/66 74/74/74 116/116/116
f 116/116/116 115/115/115 114/114/114
f 114/114/114 113/113/113 112/112/112
f 116/116/116 114/114/114 112/112/112
f 112/112/112 111/111/111 110/110/110
f 110/110/110 109/109/109 108/108/108
f 112/112/112 110/110/110 108/108/108
f 116/116/116 112/112/112 108/108/108
f 108/108/108 107/107/107 106/106/106
f 106/106/106 92/92/92 93/93/93
f 108/108/108 106/106/106 93/93/93
f 93/93/93 94/94/94 95/95/95
f 95/95/95 96/96/96 97/97/97
f 93/93/93 95/95/95 97/97/97
f 108/108/108 93/93/93 97/97/97
f 116/116/116 108/108/108 97/97/97
f 66/66/66 116/116/116 97/97/97
f 97/97/97 98/98/98 99/99/99
f 99/99/99 100/100/100 101/101/101
f 97/97/97 99/99/99 101/101/101
f 101/101/101 102/102/102 103/103/103
f 103/103/103 104/104/104 105/105/105
f 101/101/101 103/103/103 105/105/105
f 97/97/97 101/101/101 105/105/105
f 105/105/105 91/91/91 90/90/90
f 90/90/90 89/89/89 88/88/88
f 105/105/105 90/90/90 88/88/88
f 88/88/88 87/87/87 86/86/86
f 86/86/86 85/85/85 84/84/84
f 88/88/88 86/86/86 84/84/84
f 105/105/105 88/88/88 84/84/84
f 97/97/97 105/105/105 84/84/84
f 66/66/66 97/97/97 84/84/84
f 61/61/61 66/66/66 84/84/84
f 84/84/84 83/83/83 82/82/82
f 82/82/82 81/81/81 80/80/80
f 84/84/84 82/82/82 80/80/80
f 61/61/61 84/84/84 80/80/80
f 80/80/80 79/79/79 78/78/78
f 61/61/61 80/80/80 78/78/78
f 61/61/61 78/78/78 77/77/77

