mtllib material.mtl
usemtl material_0
v 0.96559200 0.03834600 1.60416700
v 0.96559200 0.03834600 1.60416700
v 0.96559200 0.03834600 1.60416700
v 0.96559200 0.25132100 1.60416700
v 0.96559200 0.25132100 1.60416700
v 0.96559200 0.25132100 1.60416700
v 0.96371300 0.03834600 1.34376800
v 0.96371300 0.03834600 1.34376800
v 0.96371300 0.03834600 1.34376800
v 0.96371300 0.25132100 1.34376800
v 0.96371300 0.25132100 1.34376800
v 0.96371300 0.25132100 1.34376800
v 0.95659800 0.03834600 1.60423200
v 0.95659800 0.03834600 1.60423200
v 0.95659800 0.03834600 1.60423200
v 0.95779800 0.25265100 1.60422300
v 0.95779800 0.25265100 1.60422300
v 0.95779800 0.25265100 1.60422300
v 0.95471900 0.03834600 1.34383300
v 0.95471900 0.03834600 1.34383300
v 0.95471900 0.03834600 1.34383300
v 0.95591900 0.25265100 1.34382400
v 0.95591900 0.25265100 1.34382400
v 0.95591900 0.25265100 1.34382400
v 0.96439200 0.25265100 1.60417600
v 0.96439200 0.25265100 1.60417600
v 0.96439200 0.25265100 1.60417600
v 0.96251300 0.25265100 1.34377700
v 0.96251300 0.25265100 1.34377700
v 0.96251300 0.25265100 1.34377700
v 0.95659800 0.25132100 1.60423200
v 0.95659800 0.25132100 1.60423200
v 0.95659800 0.25132100 1.60423200
v 0.95471900 0.25132100 1.34383300
v 0.95471900 0.25132100 1.34383300
v 0.95471900 0.25132100 1.34383300
v 0.96529200 0.25231900 1.60417000
v 0.96529200 0.25231900 1.60417000
v 0.96529200 0.25231900 1.60417000
v 0.96341300 0.25231900 1.34377000
v 0.96341300 0.25231900 1.34377000
v 0.96341300 0.25231900 1.34377000
v 0.95689800 0.25231900 1.60423000
v 0.95689800 0.25231900 1.60423000
v 0.95689800 0.25231900 1.60423000
v 0.95501900 0.25231900 1.34383100
v 0.95501900 0.25231900 1.34383100
v 0.95501900 0.25231900 1.34383100
v 0.42722300 0.03834600 1.93563400
v 0.42722300 0.03834600 1.93563400
v 0.42722300 0.03834600 1.93563400
v 0.42722300 0.25132100 1.93563400
v 0.42722300 0.25132100 1.93563400
v 0.42722300 0.25132100 1.93563400
v 0.42534300 0.03834600 1.67523500
v 0.42534300 0.03834600 1.67523500
v 0.42534300 0.03834600 1.67523500
v 0.42534400 0.25132100 1.67523400
v 0.42534400 0.25132100 1.67523400
v 0.42534400 0.25132100 1.67523400
v 0.41822900 0.03834600 1.93569900
v 0.41822900 0.03834600 1.93569900
v 0.41822900 0.03834600 1.93569900
v 0.41942900 0.25265100 1.93569000
v 0.41942900 0.25265100 1.93569000
v 0.41942900 0.25265100 1.93569000
v 0.41635000 0.03834600 1.67529900
v 0.41635000 0.03834600 1.67529900
v 0.41635000 0.03834600 1.67529900
v 0.41755000 0.25265100 1.67529100
v 0.41755000 0.25265100 1.67529100
v 0.41755000 0.25265100 1.67529100
v 0.42602300 0.25265100 1.93564300
v 0.42602300 0.25265100 1.93564300
v 0.42602300 0.25265100 1.93564300
v 0.42414400 0.25265100 1.67524300
v 0.42414400 0.25265100 1.67524300
v 0.42414400 0.25265100 1.67524300
v 0.41822900 0.25132100 1.93569900
v 0.41822900 0.25132100 1.93569900
v 0.41822900 0.25132100 1.93569900
v 0.41635000 0.25132100 1.67529900
v 0.41635000 0.25132100 1.67529900
v 0.41635000 0.25132100 1.67529900
v 0.42692300 0.25231900 1.93563600
v 0.42692300 0.25231900 1.93563600
v 0.42692300 0.25231900 1.93563600
v 0.42504400 0.25231900 1.67523700
v 0.42504400 0.25231900 1.67523700
v 0.42504400 0.25231900 1.67523700
v 0.41852900 0.25231900 1.93569700
v 0.41852900 0.25231900 1.93569700
v 0.41852900 0.25231900 1.93569700
v 0.41665000 0.25231900 1.67529700
v 0.41665000 0.25231900 1.67529700
v 0.41665000 0.25231900 1.67529700
v 0.31315200 0.03834600 0.96216400
v 0.31315200 0.03834600 0.96216400
v 0.31315200 0.03834600 0.96216400
v 0.31315200 0.25132100 0.96216400
v 0.31315200 0.25132100 0.96216400
v 0.31315200 0.25132100 0.96216400
v 0.31127300 0.03834600 0.70176500
v 0.31127300 0.03834600 0.70176500
v 0.31127300 0.03834600 0.70176500
v 0.31127300 0.25132100 0.70176500
v 0.31127300 0.25132100 0.70176500
v 0.31127300 0.25132100 0.70176500
v 0.30415800 0.03834600 0.96222900
v 0.30415800 0.03834600 0.96222900
v 0.30415800 0.03834600 0.96222900
v 0.30535800 0.25265100 0.96222100
v 0.30535800 0.25265100 0.96222100
v 0.30535800 0.25265100 0.96222100
v 0.30227900 0.03834600 0.70183000
v 0.30227900 0.03834600 0.70183000
v 0.30227900 0.03834600 0.70183000
v 0.30347900 0.25265100 0.70182100
v 0.30347900 0.25265100 0.70182100
v 0.30347900 0.25265100 0.70182100
v 0.31195200 0.25265100 0.96217300
v 0.31195200 0.25265100 0.96217300
v 0.31195200 0.25265100 0.96217300
v 0.31007300 0.25265100 0.70177300
v 0.31007300 0.25265100 0.70177300
v 0.31007300 0.25265100 0.70177300
v 0.30415800 0.25132100 0.96222900
v 0.30415800 0.25132100 0.96222900
v 0.30415800 0.25132100 0.96222900
v 0.30227900 0.25132100 0.70183000
v 0.30227900 0.25132100 0.70183000
v 0.30227900 0.25132100 0.70183000
v 0.31285200 0.25231900 0.96216600
v 0.31285200 0.25231900 0.96216600
v 0.31285200 0.25231900 0.96216600
v 0.31097300 0.25231900 0.70176700
v 0.31097300 0.25231900 0.70176700
v 0.31097300 0.25231900 0.70176700
v 0.30445800 0.25231900 0.96222700
v 0.30445800 0.25231900 0.96222700
v 0.30445800 0.25231900 0.96222700
v 0.30257900 0.25231900 0.70182800
v 0.30257900 0.25231900 0.70182800
v 0.30257900 0.25231900 0.70182800
v -0.39528500 0.03834500 0.98937000
v -0.39528500 0.03834500 0.98937000
v -0.39528500 0.03834500 0.98937000
v -0.39528500 0.25132100 0.98937000
v -0.39528500 0.25132100 0.98937000
v -0.39528500 0.25132100 0.98937000
v -0.39716400 0.03834500 0.72897000
v -0.39716400 0.03834500 0.72897000
v -0.39716400 0.03834500 0.72897000
v -0.39716400 0.25132100 0.72897000
v -0.39716400 0.25132100 0.72897000
v -0.39716400 0.25132100 0.72897000
v -0.40427900 0.03834500 0.98943500
v -0.40427900 0.03834500 0.98943500
v -0.40427900 0.03834500 0.98943500
v -0.40307900 0.25265100 0.98942600
v -0.40307900 0.25265100 0.98942600
v -0.40307900 0.25265100 0.98942600
v -0.40615800 0.03834500 0.72903500
v -0.40615800 0.03834500 0.72903500
v -0.40615800 0.03834500 0.72903500
v -0.40495800 0.25265100 0.72902700
v -0.40495800 0.25265100 0.72902700
v -0.40495800 0.25265100 0.72902700
v -0.39648500 0.25265100 0.98937900
v -0.39648500 0.25265100 0.98937900
v -0.39648500 0.25265100 0.98937900
v -0.39836400 0.25265100 0.72897900
v -0.39836400 0.25265100 0.72897900
v -0.39836400 0.25265100 0.72897900
v -0.40427900 0.25132100 0.98943500
v -0.40427900 0.25132100 0.98943500
v -0.40427900 0.25132100 0.98943500
v -0.40615800 0.25132100 0.72903500
v -0.40615800 0.25132100 0.72903500
v -0.40615800 0.25132100 0.72903500
v -0.39558500 0.25231800 0.98937200
v -0.39558500 0.25231800 0.98937200
v -0.39558500 0.25231800 0.98937200
v -0.39746400 0.25231800 0.72897200
v -0.39746400 0.25231800 0.72897200
v -0.39746400 0.25231800 0.72897200
v -0.40397900 0.25231800 0.98943300
v -0.40397900 0.25231800 0.98943300
v -0.40397900 0.25231800 0.98943300
v -0.40585800 0.25231800 0.72903300
v -0.40585800 0.25231800 0.72903300
v -0.40585800 0.25231800 0.72903300
vn 0.00720000 -0.00000000 1.00000000
vn 1.00000000 -0.00000000 -0.00720000
vn -0.00000000 -1.00000000 -0.00000000
vn 0.95760000 0.28810000 -0.00690000
vn 1.00000000 -0.00000000 -0.00720000
vn 0.00690000 -0.00000000 1.00000000
vn -0.00720000 -0.00000000 -1.00000000
vn 1.00000000 -0.00000000 -0.00720000
vn -0.00000000 -1.00000000 -0.00000000
vn -0.00720000 -0.00020000 -1.00000000
vn 1.00000000 -0.00000000 -0.00720000
vn 0.95760000 0.28790000 -0.00690000
vn 0.00720000 -0.00000000 1.00000000
vn -1.00000000 -0.00000000 0.00720000
vn -0.00000000 -1.00000000 -0.00000000
vn -0.34660000 0.93800000 0.00250000
vn 0.00720000 0.00110000 1.00000000
vn -0.00000000 1.00000000 -0.00000000
vn -1.00000000 -0.00000000 0.00720000
vn -0.00000000 -1.00000000 -0.00000000
vn -0.00720000 -0.00000000 -1.00000000
vn -0.00720000 -0.00000000 -1.00000000
vn -0.00000000 1.00000000 -0.00000000
vn -0.34650000 0.93800000 0.00250000
vn -0.00000000 1.00000000 -0.00000000
vn 0.00720000 -0.00000000 1.00000000
vn 0.34650000 0.93800000 -0.00250000
vn -0.00720000 0.00090000 -1.00000000
vn -0.00000000 1.00000000 -0.00000000
vn 0.34650000 0.93800000 -0.00250000
vn -0.95760000 0.28810000 0.00690000
vn 0.00720000 -0.00000000 1.00000000
vn -1.00000000 -0.00000000 0.00720000
vn -0.00770000 -0.00000000 -1.00000000
vn -0.95760000 0.28810000 0.00690000
vn -1.00000000 -0.00000000 0.00720000
vn 0.00710000 -0.00000000 1.00000000
vn 0.34650000 0.93800000 -0.00250000
vn 0.95760000 0.28810000 -0.00690000
vn -0.00720000 -0.00030000 -1.00000000
vn 0.34650000 0.93800000 -0.00250000
vn 0.95760000 0.28790000 -0.00690000
vn -0.95760000 0.28810000 0.00690000
vn 0.00720000 0.00020000 1.00000000
vn -0.34660000 0.93800000 0.00250000
vn -0.95760000 0.28810000 0.00690000
vn -0.34650000 0.93800000 0.00250000
vn -0.00740000 -0.00000000 -1.00000000
vn -0.00000000 -1.00000000 -0.00000000
vn 1.00000000 -0.00000000 -0.00720000
vn 0.00720000 -0.00000000 1.00000000
vn 1.00000000 -0.00000000 -0.00720000
vn 0.00730000 -0.00000000 1.00000000
vn 0.95760000 0.28790000 -0.00690000
vn -0.00720000 -0.00000000 -1.00000000
vn -0.00000000 -1.00000000 -0.00000000
vn 1.00000000 -0.00000000 -0.00720000
vn 0.95760000 0.28800000 -0.00690000
vn -0.00720000 -0.00010000 -1.00000000
vn 1.00000000 -0.00000000 -0.00720000
vn -1.00000000 -0.00000000 0.00720000
vn -0.00000000 -1.00000000 -0.00000000
vn 0.00720000 -0.00000000 1.00000000
vn -0.34650000 0.93800000 0.00250000
vn 0.00720000 -0.00060000 1.00000000
vn -0.00000000 1.00000000 -0.00000000
vn -0.00000000 -1.00000000 -0.00000000
vn -1.00000000 -0.00000000 0.00720000
vn -0.00720000 -0.00000000 -1.00000000
vn -0.00720000 -0.00000000 -1.00000000
vn -0.34650000 0.93810000 0.00250000
vn -0.00000000 1.00000000 -0.00000000
vn 0.34650000 0.93810000 -0.00250000
vn 0.00730000 -0.00000000 1.00000000
vn -0.00000000 1.00000000 -0.00000000
vn -0.00720000 0.00090000 -1.00000000
vn 0.34650000 0.93800000 -0.00250000
vn -0.00000000 1.00000000 -0.00000000
vn 0.00720000 0.00020000 1.00000000
vn -0.95760000 0.28810000 0.00690000
vn -1.00000000 -0.00000000 0.00720000
vn -1.00000000 -0.00000000 0.00720000
vn -0.00690000 -0.00000000 -1.00000000
vn -0.95760000 0.28810000 0.00690000
vn 0.95760000 0.28790000 -0.00690000
vn 0.00740000 -0.00000000 1.00000000
vn 0.34650000 0.93810000 -0.00250000
vn -0.00720000 -0.00010000 -1.00000000
vn 0.95760000 0.28800000 -0.00690000
vn 0.34650000 0.93800000 -0.00250000
vn -0.34650000 0.93800000 0.00250000
vn 0.00720000 0.00030000 1.00000000
vn -0.95760000 0.28810000 0.00690000
vn -0.95760000 0.28810000 0.00690000
vn -0.00710000 -0.00000000 -1.00000000
vn -0.34650000 0.93810000 0.00250000
vn 0.00720000 -0.00000000 1.00000000
vn 1.00000000 -0.00000000 -0.00720000
vn -0.00000000 -1.00000000 -0.00000000
vn 0.00690000 -0.00000000 1.00000000
vn 1.00000000 -0.00000000 -0.00720000
vn 0.95760000 0.28810000 -0.00690000
vn 1.00000000 -0.00000000 -0.00720000
vn -0.00720000 -0.00000000 -1.00000000
vn -0.00000000 -1.00000000 -0.00000000
vn 1.00000000 -0.00000000 -0.00720000
vn 0.95760000 0.28800000 -0.00690000
vn -0.00720000 0.00010000 -1.00000000
vn -1.00000000 -0.00000000 0.00720000
vn -0.00000000 -1.00000000 -0.00000000
vn 0.00720000 -0.00000000 1.00000000
vn -0.00000000 1.00000000 -0.00000000
vn -0.34650000 0.93810000 0.00250000
vn 0.00720000 0.00060000 1.00000000
vn -1.00000000 -0.00000000 0.00720000
vn -0.00720000 -0.00000000 -1.00000000
vn -0.00000000 -1.00000000 -0.00000000
vn -0.00720000 -0.00000000 -1.00000000
vn -0.34640000 0.93810000 0.00250000
vn -0.00000000 1.00000000 -0.00000000
vn -0.00000000 1.00000000 -0.00000000
vn 0.00720000 -0.00000000 1.00000000
vn 0.34650000 0.93810000 -0.00250000
vn 0.34650000 0.93800000 -0.00250000
vn -0.00720000 -0.00040000 -1.00000000
vn -0.00000000 1.00000000 -0.00000000
vn -0.95760000 0.28790000 0.00690000
vn -1.00000000 -0.00000000 0.00720000
vn 0.00720000 -0.00010000 1.00000000
vn -1.00000000 -0.00000000 0.00720000
vn -0.00730000 -0.00000000 -1.00000000
vn -0.95760000 0.28790000 0.00690000
vn 0.00710000 -0.00000000 1.00000000
vn 0.34650000 0.93810000 -0.00250000
vn 0.95760000 0.28810000 -0.00690000
vn 0.34650000 0.93800000 -0.00250000
vn 0.95760000 0.28800000 -0.00690000
vn -0.00720000 0.00010000 -1.00000000
vn -0.95760000 0.28790000 0.00690000
vn -0.34650000 0.93810000 0.00250000
vn 0.00720000 -0.00020000 1.00000000
vn -0.95760000 0.28790000 0.00690000
vn -0.00720000 -0.00000000 -1.00000000
vn -0.34640000 0.93810000 0.00250000
vn 0.00720000 -0.00000000 1.00000000
vn 1.00000000 -0.00000000 -0.00720000
vn -0.00000000 -1.00000000 -0.00000000
vn 0.95750000 0.28830000 -0.00690000
vn 0.00730000 -0.00000000 1.00000000
vn 1.00000000 -0.00000000 -0.00720000
vn 1.00000000 -0.00000000 -0.00720000
vn -0.00000000 -1.00000000 -0.00000000
vn -0.00720000 -0.00000000 -1.00000000
vn -0.00720000 -0.00000000 -1.00000000
vn 1.00000000 -0.00000000 -0.00720000
vn 0.95760000 0.28810000 -0.00690000
vn -0.00000000 -1.00000000 -0.00000000
vn 0.00720000 -0.00000000 1.00000000
vn -1.00000000 -0.00000000 0.00720000
vn -0.34650000 0.93810000 0.00250000
vn 0.00720000 0.00010000 1.00000000
vn -0.00000000 1.00000000 -0.00000000
vn -1.00000000 -0.00000000 0.00720000
vn -0.00720000 -0.00000000 -1.00000000
vn -0.00000000 -1.00000000 -0.00000000
vn -0.00720000 -0.00000000 -1.00000000
vn -0.34670000 0.93800000 0.00250000
vn -0.00000000 1.00000000 -0.00000000
vn 0.34650000 0.93800000 -0.00250000
vn -0.00000000 1.00000000 -0.00000000
vn 0.00720000 -0.00000000 1.00000000
vn -0.00720000 -0.00000000 -1.00000000
vn 0.34660000 0.93800000 -0.00250000
vn -0.00000000 1.00000000 -0.00000000
vn 0.00720000 -0.00000000 1.00000000
vn -1.00000000 -0.00000000 0.00720000
vn -0.95750000 0.28830000 0.00690000
vn -0.00730000 -0.00000000 -1.00000000
vn -1.00000000 -0.00000000 0.00720000
vn -0.95760000 0.28820000 0.00690000
vn 0.00730000 -0.00000000 1.00000000
vn 0.34650000 0.93800000 -0.00250000
vn 0.95750000 0.28830000 -0.00690000
vn -0.00720000 -0.00000000 -1.00000000
vn 0.95760000 0.28810000 -0.00690000
vn 0.34660000 0.93800000 -0.00250000
vn -0.34650000 0.93810000 0.00250000
vn 0.00720000 -0.00000000 1.00000000
vn -0.95750000 0.28830000 0.00690000
vn -0.34670000 0.93800000 0.00250000
vn -0.00720000 -0.00000000 -1.00000000
vn -0.95760000 0.28820000 0.00690000
vt 0.98778000 0.19278700
vt 0.01445000 0.81459600
vt 0.80842500 0.14003200
vt 0.48843400 0.81459500
vt 0.48843400 0.81459500
vt 0.51379300 0.19278600
vt 0.01497500 0.19308400
vt 0.01445000 0.20455100
vt 0.19837300 0.14003200
vt 0.48896100 0.19309800
vt 0.48843400 0.20455100
vt 0.48843400 0.20455100
vt 0.98778000 0.17060300
vt 0.98804900 0.81459500
vt 0.80842500 0.16221500
vt 0.50938100 0.81459500
vt 0.51083300 0.17356300
vt 0.50938100 0.81459500
vt 0.98804900 0.20455100
vt 0.19837300 0.16221500
vt 0.01497500 0.17090000
vt 0.49192100 0.17387500
vt 0.50938100 0.20455100
vt 0.50938100 0.20455100
vt 0.49311600 0.81459500
vt 0.51083300 0.18982700
vt 0.49311600 0.81459500
vt 0.49192100 0.19013800
vt 0.49311600 0.20455100
vt 0.49311600 0.20455100
vt 0.51406500 0.81459500
vt 0.51379300 0.17060300
vt 0.51406500 0.81459500
vt 0.48896200 0.17091500
vt 0.51406400 0.20455100
vt 0.51406400 0.20455100
vt 0.51157300 0.19204600
vt 0.49077500 0.81459500
vt 0.49077500 0.81459500
vt 0.49118100 0.19235800
vt 0.49077500 0.20455100
vt 0.49077500 0.20455100
vt 0.51172300 0.81459500
vt 0.51157300 0.17134300
vt 0.51172300 0.81459500
vt 0.51172300 0.20455100
vt 0.51172300 0.20455100
vt 0.49118200 0.17165500
vt 0.80842500 0.14003200
vt 0.01445000 0.81459600
vt 0.98778000 0.19278700
vt 0.48843400 0.81459500
vt 0.51379300 0.19278600
vt 0.48843400 0.81459500
vt 0.01497500 0.19308400
vt 0.19837300 0.14003200
vt 0.01445000 0.20455100
vt 0.48843400 0.20455100
vt 0.48896100 0.19309800
vt 0.48843400 0.20455100
vt 0.98804900 0.81459500
vt 0.80842500 0.16221500
vt 0.98778000 0.17060300
vt 0.50938100 0.81459500
vt 0.51083300 0.17356300
vt 0.50938100 0.81459500
vt 0.19837300 0.16221500
vt 0.98804900 0.20455100
vt 0.01497500 0.17090000
vt 0.49192100 0.17387500
vt 0.50938100 0.20455100
vt 0.50938100 0.20455100
vt 0.49311600 0.81459500
vt 0.51083300 0.18982700
vt 0.49311600 0.81459500
vt 0.49192100 0.19013800
vt 0.49311600 0.20455100
vt 0.49311600 0.20455100
vt 0.51379300 0.17060300
vt 0.51406500 0.81459500
vt 0.51406500 0.81459500
vt 0.51406400 0.20455100
vt 0.48896200 0.17091500
vt 0.51406400 0.20455100
vt 0.49077500 0.81459500
vt 0.51157300 0.19204600
vt 0.49077500 0.81459500
vt 0.49118100 0.19235800
vt 0.49077500 0.20455100
vt 0.49077500 0.20455100
vt 0.51172300 0.81459500
vt 0.51157300 0.17134300
vt 0.51172300 0.81459500
vt 0.51172300 0.20455100
vt 0.49118200 0.17165500
vt 0.51172300 0.20455100
vt 0.98778000 0.19278700
vt 0.01445000 0.81459600
vt 0.80842500 0.14003200
vt 0.51379300 0.19278600
vt 0.48843400 0.81459500
vt 0.48843400 0.81459500
vt 0.01445000 0.20455100
vt 0.01497500 0.19308400
vt 0.19837300 0.14003200
vt 0.48843400 0.20455100
vt 0.48843400 0.20455100
vt 0.48896100 0.19309800
vt 0.98804900 0.81459500
vt 0.80842500 0.16221500
vt 0.98778000 0.17060300
vt 0.50938100 0.81459500
vt 0.50938100 0.81459500
vt 0.51083300 0.17356300
vt 0.98804900 0.20455100
vt 0.01497500 0.17090000
vt 0.19837300 0.16221500
vt 0.49192100 0.17387500
vt 0.50938100 0.20455100
vt 0.50938100 0.20455100
vt 0.49311600 0.81459500
vt 0.51083300 0.18982700
vt 0.49311600 0.81459500
vt 0.49311600 0.20455100
vt 0.49192100 0.19013800
vt 0.49311600 0.20455100
vt 0.51406500 0.81459500
vt 0.51406500 0.81459500
vt 0.51379300 0.17060300
vt 0.51406400 0.20455100
vt 0.48896200 0.17091500
vt 0.51406400 0.20455100
vt 0.51157300 0.19204600
vt 0.49077500 0.81459500
vt 0.49077500 0.81459500
vt 0.49077500 0.20455100
vt 0.49077500 0.20455100
vt 0.49118100 0.19235800
vt 0.51172300 0.81459500
vt 0.51172300 0.81459500
vt 0.51157300 0.17134300
vt 0.51172300 0.20455100
vt 0.49118200 0.17165500
vt 0.51172300 0.20455100
vt 0.98778000 0.19278700
vt 0.01445000 0.81459600
vt 0.80842500 0.14003200
vt 0.48843400 0.81459500
vt 0.51379300 0.19278600
vt 0.48843400 0.81459500
vt 0.01445000 0.20455100
vt 0.19837300 0.14003200
vt 0.01497500 0.19308400
vt 0.48896100 0.19309800
vt 0.48843400 0.20455100
vt 0.48843400 0.20455100
vt 0.80842500 0.16221500
vt 0.98778000 0.17060300
vt 0.98804900 0.81459500
vt 0.50938100 0.81459500
vt 0.51083300 0.17356300
vt 0.50938100 0.81459500
vt 0.98804900 0.20455100
vt 0.01497500 0.17090000
vt 0.19837300 0.16221500
vt 0.49192100 0.17387500
vt 0.50938100 0.20455100
vt 0.50938100 0.20455100
vt 0.49311600 0.81459500
vt 0.49311600 0.81459500
vt 0.51083300 0.18982700
vt 0.49192100 0.19013800
vt 0.49311600 0.20455100
vt 0.49311600 0.20455100
vt 0.51379300 0.17060300
vt 0.51406500 0.81459500
vt 0.51406500 0.81459500
vt 0.48896200 0.17091500
vt 0.51406400 0.20455100
vt 0.51406400 0.20455100
vt 0.51157300 0.19204600
vt 0.49077500 0.81459500
vt 0.49077500 0.81459500
vt 0.49118100 0.19235800
vt 0.49077500 0.20455100
vt 0.49077500 0.20455100
vt 0.51172300 0.81459500
vt 0.51157300 0.17134300
vt 0.51172300 0.81459500
vt 0.51172300 0.20455100
vt 0.49118200 0.17165500
vt 0.51172300 0.20455100
f 2/2/2 8/8/8 11/11/11
f 11/11/11 5/5/5 2/2/2
f 14/14/14 33/33/33 36/36/36
f 36/36/36 19/19/19 14/14/14
f 1/1/1 6/6/6 37/37/37
f 1/1/1 37/37/37 26/26/26
f 26/26/26 17/17/17 44/44/44
f 26/26/26 44/44/44 32/32/32
f 1/1/1 26/26/26 32/32/32
f 1/1/1 32/32/32 13/13/13
f 25/25/25 29/29/29 23/23/23
f 23/23/23 18/18/18 25/25/25
f 10/10/10 7/7/7 21/21/21
f 21/21/21 34/34/34 48/48/48
f 21/21/21 48/48/48 22/22/22
f 10/10/10 21/21/21 22/22/22
f 40/40/40 10/10/10 22/22/22
f 28/28/28 40/40/40 22/22/22
f 9/9/9 3/3/3 15/15/15
f 15/15/15 20/20/20 9/9/9
f 39/39/39 4/4/4 12/12/12
f 12/12/12 42/42/42 39/39/39
f 46/46/46 35/35/35 31/31/31
f 31/31/31 43/43/43 46/46/46
f 27/27/27 38/38/38 41/41/41
f 41/41/41 30/30/30 27/27/27
f 24/24/24 47/47/47 45/45/45
f 45/45/45 16/16/16 24/24/24
f 50/50/50 57/57/57 60/60/60
f 60/60/60 52/52/52 50/50/50
f 61/61/61 81/81/81 82/82/82
f 82/82/82 68/68/68 61/61/61
f 51/51/51 53/53/53 86/86/86
f 51/51/51 86/86/86 74/74/74
f 74/74/74 65/65/65 92/92/92
f 74/74/74 92/92/92 79/79/79
f 51/51/51 74/74/74 79/79/79
f 51/51/51 79/79/79 63/63/63
f 75/75/75 78/78/78 72/72/72
f 72/72/72 66/66/66 75/75/75
f 59/59/59 55/55/55 69/69/69
f 69/69/69 83/83/83 95/95/95
f 69/69/69 95/95/95 70/70/70
f 59/59/59 69/69/69 70/70/70
f 88/88/88 59/59/59 70/70/70
f 76/76/76 88/88/88 70/70/70
f 56/56/56 49/49/49 62/62/62
f 62/62/62 67/67/67 56/56/56
f 85/85/85 54/54/54 58/58/58
f 58/58/58 89/89/89 85/85/85
f 94/94/94 84/84/84 80/80/80
f 80/80/80 93/93/93 94/94/94
f 73/73/73 87/87/87 90/90/90
f 90/90/90 77/77/77 73/73/73
f 71/71/71 96/96/96 91/91/91
f 91/91/91 64/64/64 71/71/71
f 98/98/98 103/103/103 106/106/106
f 106/106/106 101/101/101 98/98/98
f 109/109/109 128/128/128 130/130/130
f 130/130/130 115/115/115 109/109/109
f 97/97/97 100/100/100 133/133/133
f 97/97/97 133/133/133 122/122/122
f 122/122/122 114/114/114 141/141/141
f 122/122/122 141/141/141 129/129/129
f 97/97/97 122/122/122 129/129/129
f 97/97/97 129/129/129 111/111/111
f 121/121/121 126/126/126 120/120/120
f 120/120/120 112/112/112 121/121/121
f 108/108/108 104/104/104 116/116/116
f 116/116/116 131/131/131 143/143/143
f 116/116/116 143/143/143 118/118/118
f 108/108/108 116/116/116 118/118/118
f 138/138/138 108/108/108 118/118/118
f 125/125/125 138/138/138 118/118/118
f 105/105/105 99/99/99 110/110/110
f 110/110/110 117/117/117 105/105/105
f 135/135/135 102/102/102 107/107/107
f 107/107/107 137/137/137 135/135/135
f 142/142/142 132/132/132 127/127/127
f 127/127/127 139/139/139 142/142/142
f 123/123/123 134/134/134 136/136/136
f 136/136/136 124/124/124 123/123/123
f 119/119/119 144/144/144 140/140/140
f 140/140/140 113/113/113 119/119/119
f 146/146/146 151/151/151 155/155/155
f 155/155/155 150/150/150 146/146/146
f 159/159/159 176/176/176 179/179/179
f 179/179/179 163/163/163 159/159/159
f 145/145/145 149/149/149 181/181/181
f 145/145/145 181/181/181 171/171/171
f 171/171/171 161/161/161 188/188/188
f 171/171/171 188/188/188 175/175/175
f 145/145/145 171/171/171 175/175/175
f 145/145/145 175/175/175 158/158/158
f 170/170/170 174/174/174 168/168/168
f 168/168/168 162/162/162 170/170/170
f 154/154/154 153/153/153 164/164/164
f 164/164/164 178/178/178 191/191/191
f 164/164/164 191/191/191 166/166/166
f 154/154/154 164/164/164 166/166/166
f 184/184/184 154/154/154 166/166/166
f 172/172/172 184/184/184 166/166/166
f 152/152/152 147/147/147 157/157/157
f 157/157/157 165/165/165 152/152/152
f 183/183/183 148/148/148 156/156/156
f 156/156/156 185/185/185 183/183/183
f 192/192/192 180/180/180 177/177/177
f 177/177/177 189/189/189 192/192/192
f 169/169/169 182/182/182 186/186/186
f 186/186/186 173/173/173 169/169/169
f 167/167/167 190/190/190 187/187/187
f 187/187/187 160/160/160 167/167/167

